# xmcd
#
# Track frame offsets: 
#        150
#        13198
#        29545
#        53976
#        77627
#        90822
#        109461
#        126425
#        153134
#        166625
#        180651
#
# Disc length: 2610 seconds
#
# Revision: 0
# Processed by: cddbd v1.5.2PL0 Copyright (c) Steve Scherf et al.
# Submitted via: ExactAudioCopy v1.0b1
#
DISCID=7f0a300b
DTITLE=Richard Ray Farrell - Shoe Shoppin' Woman
DYEAR=2014
DGENRE=Blues
TTITLE0=Shoe Shoppin' Woman
TTITLE1=Stuck In Philly
TTITLE2=Just Like Sonny Liston
TTITLE3=Blue Shadows Falling
TTITLE4=Road Trippin'
TTITLE5=If I Could
TTITLE6=Wild About You Baby
TTITLE7=Johnnie's In Jail
TTITLE8=Shake It!
TTITLE9=Stir Crazy
TTITLE10=She's My Girl
EXTD=
EXTT0=
EXTT1=
EXTT2=
EXTT3=
EXTT4=
EXTT5=
EXTT6=
EXTT7=
EXTT8=
EXTT9=
EXTT10=
PLAYORDER=
